# xmcd
#
# Track frame offsets:
#	150
#	17484
#	20686
#	37689
#	51482
#	66735
#	95810
#	111966
#	124844
#	143504
#	160883
#	177223
#	188530
#	203575
#	218881
#
# Disc length: 3114 seconds
#
# Revision: 1
# Processed by: cddbd v1.5PL3 Copyright (c) Steve Scherf et al.
# Submitted via: CDex 1.50Beta5
#
DISCID=d20c280f
DTITLE=原由子 - 東京タムレ
DYEAR=2002
DGENRE=New Age
TTITLE0=太陽は泣いている
TTITLE1=愛のさざなみ
TTITLE2=私と私
TTITLE3=東京タムレ
TTITLE4=夏の日の想い出
TTITLE5=生きがい
TTITLE6=夜霧のわかれ道
TTITLE7=学生時代
TTITLE8=花のように
TTITLE9=いつでも夢を
TTITLE10=川は流れる
TTITLE11=天使の誘惑
TTITLE12=今日の日はさようなら
TTITLE13=もいちどタムレ
TTITLE14=花咲く旅路
EXTD=
EXTT0=
EXTT1=
EXTT2=
EXTT3=
EXTT4=
EXTT5=
EXTT6=
EXTT7=
EXTT8=
EXTT9=
EXTT10=
EXTT11=
EXTT12=
EXTT13=
EXTT14=
PLAYORDER=
